<svg width="114" height="114" viewBox="0 0 114 114" fill="none" xmlns="http://www.w3.org/2000/svg">
<path d="M76.7129 5.41406H74.6314L74.6284 5.42495C70.8845 19.3488 70.8809 19.3623 56.938 23.1063V25.188C70.8845 28.9371 70.8845 28.9371 74.6314 42.8823H76.7129C78.5862 35.9101 79.5229 32.4237 81.7344 30.2119C83.946 27.9999 87.4327 27.0627 94.4063 25.188V23.1063C87.4332 21.2339 83.9466 20.2977 81.7349 18.0863C79.5231 15.8748 78.5864 12.3879 76.7129 5.41406Z" fill="#FB5F93"/>
<path d="M89.7227 47.5659V67.2367C89.7227 79.5017 89.7227 85.6342 86.9621 90.1392C85.4173 92.66 83.2979 94.7794 80.7772 96.3241C76.2722 99.0847 70.1397 99.0847 53.1912 99.0847H51.3178C39.0528 99.0847 32.9203 99.0847 28.4153 96.3241C25.8945 94.7794 23.7751 92.66 22.2304 90.1392C19.4697 85.6342 19.4697 79.5017 19.4697 67.2367V46.6292C19.4697 34.3642 19.4697 28.2317 22.2304 23.7267C23.7751 21.2059 25.8945 19.0865 28.4153 17.5418C32.9203 14.7811 39.0528 14.7811 51.3178 14.7811H52.2545V21.8064H51.3178C45.0492 21.8064 40.8412 21.8138 37.6215 22.12C34.5064 22.4162 33.0492 22.9416 32.086 23.5318C30.5105 24.4973 29.1859 25.8219 28.2204 27.3974C27.6302 28.3606 27.1048 29.8178 26.8086 32.9329C26.5024 36.1526 26.495 40.3606 26.495 46.6292V67.2367C26.495 73.5052 26.5024 77.7133 26.8086 80.933C27.1048 84.0481 27.6302 85.5053 28.2204 86.4685C29.1859 88.0439 30.5105 89.3686 32.086 90.334C33.0492 90.9242 34.5064 91.4497 37.6215 91.7459C40.8412 92.052 45.0492 92.0594 51.3178 92.0594H53.1912C64.1432 92.0594 68.3513 92.052 71.571 91.7459C74.6861 91.4497 76.1433 90.9242 77.1065 90.334C78.6819 89.3686 80.0066 88.0439 80.972 86.4685C81.5622 85.5053 82.0877 84.0481 82.3839 80.933C82.69 77.7133 82.6974 73.5052 82.6974 67.2367V47.5659H89.7227Z" fill="#FB5F93"/>
<path d="M59.1952 34.6357L58.0913 33.5318L58.084 33.536C48.7143 38.9347 48.7052 38.94 39.3253 33.5312L38.2213 34.6352C43.6293 44.0197 43.6293 44.0197 38.2208 53.4023L39.3247 54.5062C44.0158 51.8021 46.3614 50.45 48.7072 50.4498C51.0532 50.4496 53.3993 51.8016 58.0918 54.5057L59.1958 53.4017C56.4908 48.7107 55.1383 46.3651 55.1381 44.0195C55.1379 41.6736 56.4903 39.3277 59.1952 34.6357Z" fill="#FB5F93"/>
<path d="M102.459 38.2031L54.7822 77.9268H45.6982V75.873L97.7637 32.4922L102.459 38.2031Z" fill="#FB5F93"/>
</svg>
