<svg width="113" height="114" viewBox="0 0 113 114" fill="none" xmlns="http://www.w3.org/2000/svg">
<g clip-path="url(#clip0_6824_205)">
<path d="M95.2536 10.166H93.172L93.1691 10.1769C89.4252 24.1008 89.4216 24.1143 75.4787 27.8583V29.94C82.4523 31.8146 85.9389 32.7519 88.1506 34.9639C90.362 37.1757 91.2987 40.662 93.172 47.6343H95.2536C97.1269 40.662 98.0636 37.1757 100.275 34.9639C102.487 32.7519 105.973 31.8146 112.947 29.94V27.8583C105.974 25.9859 102.487 25.0496 100.276 22.8382C98.0638 20.6267 97.1271 17.1399 95.2536 10.166Z" fill="#FB5F93"/>
<path d="M41.7269 19.5331H70.7649V26.5584L41.7269 26.5584C35.4584 26.5584 31.2504 26.5658 28.0307 26.8719C24.9156 27.1681 23.4583 27.6936 22.4952 28.2838C20.9197 29.2493 19.5951 30.5739 18.6296 32.1494C18.0394 33.1125 17.5139 34.5697 17.2178 37.6849C16.9116 40.9045 16.9042 45.1126 16.9042 51.3811L16.9042 62.6216C16.9042 68.8901 16.9116 73.0982 17.2177 76.3179C17.5139 79.433 18.0394 80.8902 18.6296 81.8534C19.5951 83.4288 20.9197 84.7535 22.4952 85.7189C23.4583 86.3091 24.9156 86.8346 28.0307 87.1308C31.2504 87.4369 35.4584 87.4443 41.7269 87.4443H50.36L66.1118 103.21V113.053L47.3775 94.3167V94.4696H41.7269C29.462 94.4696 23.3295 94.4696 18.8245 91.709C16.3037 90.1642 14.1843 88.0448 12.6396 85.5241C9.87891 81.0191 9.87891 74.8866 9.87891 62.6216V51.3811C9.87891 39.1161 9.87891 32.9836 12.6396 28.4787C14.1843 25.9579 16.3037 23.8385 18.8245 22.2937C23.3295 19.5331 29.462 19.5331 41.7269 19.5331Z" fill="#FB5F93"/>
<path d="M96.5243 62.6216V52.3178H103.55V62.6216C103.55 74.8866 103.55 81.0191 100.789 85.5241C99.2442 88.0448 97.1248 90.1642 94.604 91.709C90.099 94.4696 83.9665 94.4696 71.7016 94.4696H66.1116V87.4443H71.7016C77.9701 87.4443 82.1781 87.4369 85.3978 87.1308C88.5129 86.8346 89.9702 86.3091 90.9333 85.7189C92.5088 84.7535 93.8334 83.4288 94.7989 81.8534C95.3891 80.8902 95.9146 79.433 96.2108 76.3179C96.5169 73.0982 96.5243 68.8901 96.5243 62.6216Z" fill="#FB5F93"/>
<path d="M33.006 52.279H61.398V45.2536H33.006V52.279Z" fill="#FB5F93"/>
<path d="M33.0056 71.091H79.9358V64.0657H33.0056V71.091Z" fill="#FB5F93"/>
</g>
<defs>
<clipPath id="clip0_6824_205">
<rect width="112.405" height="112.405" fill="white" transform="translate(0.543945 0.798828)"/>
</clipPath>
</defs>
</svg>
