<svg width="113" height="114" viewBox="0 0 113 114" fill="none" xmlns="http://www.w3.org/2000/svg">
<path d="M86.0589 5.48242H83.9773L83.9744 5.49331C80.2305 19.4172 80.2268 19.4307 66.2839 23.1747V25.2564C73.2576 27.131 76.7442 28.0683 78.9558 30.2803C81.1673 32.4921 82.104 35.9784 83.9773 42.9507H86.0589C87.9322 35.9784 88.8689 32.4921 91.0803 30.2803C93.292 28.0683 96.7786 27.131 103.752 25.2564V23.1747C96.7792 21.3023 93.2926 20.366 91.0809 18.1546C88.8691 15.9431 87.9324 12.4563 86.0589 5.48242Z" fill="#FB5F93"/>
<path fill-rule="evenodd" clip-rule="evenodd" d="M42.1559 30.099C48.5106 29.7711 54.6488 29.0837 60.5435 28.0013L61.2447 35.0141C55.2216 36.0928 48.9955 36.7776 42.5986 37.1107C43.0241 42.1764 43.6714 47.0419 44.5484 51.7207C45.304 51.5413 46.0748 51.3728 46.8609 51.2156C55.4785 49.492 63.0241 49.6228 69.2898 51.2295C69.7668 47.8747 70.1204 44.2745 70.3348 40.4145L77.3493 40.8042C77.0927 45.4224 76.643 49.7354 76.0153 53.7559C80.8734 56.2595 84.5603 59.9062 86.9101 64.3942C92.7015 75.4554 89.4045 89.9013 78.047 100.751L73.1943 95.6706C82.9128 86.387 84.6597 75.2417 80.6863 67.6529C79.3911 65.1791 77.3809 62.8925 74.6057 61.0758C72.0429 72.1208 67.943 80.5691 62.7275 86.7771C61.6959 88.005 60.6252 89.1396 59.5205 90.1848C61.034 92.5131 62.6508 94.7827 64.3731 96.997L58.8277 101.31C57.1091 99.1005 55.4908 96.8426 53.9705 94.5343C47.6409 98.584 40.5806 100.324 33.4992 100.324C20.8543 100.324 13.6448 89.4072 15.1421 78.1353C16.417 68.5376 23.6792 58.9783 37.7847 53.7534C36.7679 48.4877 36.034 43.0195 35.5686 37.3365C28.6992 37.4244 21.653 37.1385 14.4678 36.5283L15.0623 29.5282C21.9407 30.1124 28.6401 30.3866 35.1338 30.3159C34.9833 26.7906 34.9279 23.1858 34.9644 19.4987L41.9893 19.5682C41.9537 23.1686 42.0085 26.6776 42.1559 30.099ZM39.3151 60.679C27.7824 65.2206 22.9389 72.7921 22.1063 79.0603C21.0574 86.9563 25.902 93.2992 33.4992 93.2992C39.3834 93.2992 45.1436 91.8763 50.3045 88.5377C45.4462 79.9524 41.8198 70.6976 39.3151 60.679ZM55.8057 83.9759C56.3301 83.4302 56.8446 82.8578 57.3486 82.258C61.8959 76.8454 65.7124 69.0423 68.0593 58.1637C62.9353 56.7271 56.369 56.4784 48.2387 58.1044C47.4848 58.2552 46.75 58.4165 46.0341 58.5878C48.2955 67.7608 51.5299 76.1851 55.8057 83.9759Z" fill="#FB5F93"/>
</svg>
