<svg width="2000" height="265" viewBox="0 0 2000 265" fill="none" xmlns="http://www.w3.org/2000/svg">
<path d="M402.132 248.113H375.986V218.045H303.56V248.113H277.414V195.036H286.042C288.831 189.458 291.097 182.834 292.84 175.165C294.583 167.321 295.977 159.041 297.023 150.326C298.069 141.61 298.766 132.72 299.115 123.656C299.464 114.592 299.638 105.964 299.638 97.7714V86.5284H388.274V195.036H402.132V248.113ZM102.755 60.905H88.6364C75.5631 60.905 65.7147 63.8682 59.0909 69.7947C52.4671 75.7212 49.1553 83.5652 49.1553 93.3265C49.1553 98.9044 49.7653 103.785 50.9855 107.968C52.2057 111.978 53.9488 115.725 56.2148 119.211C58.6551 122.698 61.6184 126.01 65.1046 129.147C68.7651 132.11 73.0357 135.248 77.9163 138.56L93.8656 149.28L47.8479 218.045H13.5961L54.9075 156.601C48.981 152.417 43.6645 148.147 38.9582 143.789C34.4261 139.431 30.5913 134.812 27.4537 129.931C24.3162 125.051 21.8758 119.822 20.1327 114.244C18.564 108.491 17.7796 102.129 17.7796 95.1568C17.7796 86.4413 19.2612 78.5102 22.2245 71.3635C25.362 64.0425 29.8941 57.8545 35.8206 52.7996C41.7471 47.5703 49.0681 43.5612 57.7836 40.7722C66.6734 37.8089 76.8705 36.3273 88.3749 36.3273H134.393V218.045H102.755V60.905ZM441.874 162.615C442.397 174.468 445.186 183.27 450.241 189.022C455.296 194.775 463.837 197.651 475.865 197.651C483.186 197.651 490.42 196.431 497.566 193.99C504.887 191.376 510.901 188.499 515.607 185.362V209.155C511.075 212.293 505.323 214.995 498.351 217.261C491.378 219.527 483.011 220.66 473.25 220.66C453.728 220.66 438.65 215.082 428.017 203.926C417.558 192.77 412.329 175.688 412.329 152.679C412.329 142.743 413.375 133.592 415.467 125.225C417.733 116.858 421.132 109.624 425.664 103.524C430.196 97.2485 435.861 92.455 442.659 89.1431C449.631 85.6569 457.737 83.9138 466.975 83.9138C474.47 83.9138 481.268 85.0468 487.369 87.3128C493.644 89.5789 498.961 93.2394 503.319 98.2943C507.676 103.349 510.988 109.886 513.254 117.904C515.695 125.748 516.915 135.422 516.915 146.927V162.615H441.874ZM261.726 86.5284V218.045H233.226V162.353H189.039V218.045H160.539V86.5284H189.039V139.344H233.226V86.5284H261.726ZM568.946 151.894V218.045H540.446V86.5284H568.946V150.064L614.964 86.5284H644.771L600.06 148.234L650.523 218.045H617.055L568.946 151.894ZM711.444 220.66C690.876 220.66 675.623 214.82 665.688 203.141C655.926 191.463 651.046 174.555 651.046 152.417C651.046 142.482 652.266 133.331 654.706 124.964C657.321 116.423 661.069 109.189 665.949 103.262C671.004 97.1613 677.192 92.455 684.513 89.1431C691.834 85.6569 700.375 83.9138 710.137 83.9138C717.632 83.9138 724.081 84.5239 729.485 85.744C734.889 86.7899 739.159 88.2715 742.297 90.1889V115.29C739.334 113.372 735.237 111.542 730.008 109.799C724.779 108.056 719.288 107.184 713.536 107.184C702.903 107.184 694.71 110.932 688.958 118.427C683.38 125.748 680.591 136.817 680.591 151.633C680.591 165.752 683.119 176.908 688.174 185.1C693.229 193.293 701.596 197.389 713.274 197.389C719.549 197.389 724.953 196.605 729.485 195.036C734.191 193.293 738.462 191.114 742.297 188.499V212.554C738.636 215.169 734.279 217.173 729.224 218.568C724.343 219.962 718.416 220.66 711.444 220.66ZM359.775 109.537H324.739V115.028C324.739 120.78 324.564 127.23 324.216 134.376C323.867 141.523 323.257 148.757 322.385 156.078C321.514 163.399 320.294 170.458 318.725 177.257C317.33 184.055 315.5 189.981 313.234 195.036H359.775V109.537ZM466.452 106.923C458.434 106.923 452.42 109.886 448.411 115.812C444.402 121.565 442.223 130.019 441.874 141.174H487.892V137.775C487.892 133.418 487.544 129.409 486.846 125.748C486.149 121.913 484.929 118.601 483.186 115.812C481.617 113.023 479.438 110.845 476.649 109.276C474.035 107.707 470.636 106.923 466.452 106.923Z" fill="black"/>
<path fill-rule="evenodd" clip-rule="evenodd" d="M1053.08 130.79C1053.08 197.425 999.06 251.444 932.427 251.444C865.795 251.444 811.778 197.425 811.778 130.79C811.778 64.1555 865.795 10.1372 932.427 10.1372C999.06 10.1372 1053.08 64.1555 1053.08 130.79ZM988.534 62.9398C989.708 61.8011 995.602 65.9935 1001.32 71.7274C1006.66 77.3776 1010.9 83.628 1009.73 84.7677L947.246 145.574C946.507 146.294 946.091 147.281 946.092 148.312L946.154 222.695C946.154 224.137 939.316 225.973 930.833 225.973C922.349 225.973 915.512 224.137 915.512 222.695L915.574 148.312C915.575 147.281 915.159 146.294 914.42 145.574L851.937 84.7677C850.764 83.628 855.01 77.3776 860.344 71.7274C866.064 65.9925 871.958 61.8001 873.132 62.9398L929.058 117.398C930.046 118.359 931.62 118.359 932.607 117.398L988.534 62.9398Z" fill="black"/>
<path d="M1118.44 36.3273H1224.86V60.905H1150.08V109.014H1169.69C1190.96 109.014 1207.25 113.198 1218.58 121.565C1229.91 129.757 1235.58 143.092 1235.58 161.569C1235.58 171.504 1234.01 180.045 1230.87 187.192C1227.73 194.165 1223.2 200.004 1217.28 204.71C1211.52 209.242 1204.46 212.641 1196.1 214.907C1187.9 216.999 1178.75 218.045 1168.64 218.045H1118.44V36.3273ZM1168.64 193.467C1179.62 193.467 1188.17 191.114 1194.27 186.408C1200.37 181.701 1203.42 173.857 1203.42 162.876C1203.42 152.592 1200.54 145.184 1194.79 140.652C1189.21 135.945 1180.67 133.592 1169.17 133.592H1150.08V193.467H1168.64ZM1288.19 103.524C1292.19 97.0742 1297.16 92.1935 1303.09 88.8816C1309.19 85.5697 1315.9 83.9138 1323.22 83.9138C1330.54 83.9138 1337.25 85.3954 1343.35 88.3587C1349.46 91.3219 1354.68 95.7668 1359.04 101.693C1363.4 107.446 1366.8 114.592 1369.24 123.133C1371.68 131.5 1372.9 141.174 1372.9 152.156C1372.9 163.137 1371.59 172.899 1368.98 181.44C1366.54 189.981 1363.05 197.215 1358.52 203.141C1354.16 208.894 1348.76 213.251 1342.31 216.215C1336.03 219.178 1329.15 220.66 1321.65 220.66C1307.88 220.66 1296.99 214.646 1288.97 202.619V255.957H1257.86V86.5284H1286.62L1288.19 103.524ZM1313.81 196.082C1322.87 196.082 1329.58 192.596 1333.94 185.623C1338.47 178.651 1340.74 167.495 1340.74 152.156C1340.74 136.817 1338.65 125.748 1334.46 118.95C1330.28 111.978 1323.92 108.491 1315.38 108.491C1306.66 108.491 1300.13 111.803 1295.77 118.427C1291.41 125.051 1289.14 135.684 1288.97 150.326V152.417C1288.97 167.757 1290.97 178.912 1294.98 185.885C1299.17 192.683 1305.44 196.082 1313.81 196.082ZM1460.89 158.17H1456.45C1443.02 158.17 1433.44 159.738 1427.69 162.876C1421.93 165.839 1419.06 171.069 1419.06 178.564C1419.06 184.142 1420.63 188.674 1423.76 192.16C1427.07 195.472 1432.04 197.128 1438.67 197.128C1444.24 197.128 1448.86 196.169 1452.52 194.252C1456.18 192.16 1458.97 189.632 1460.89 186.669V158.17ZM1492.01 185.885C1492.01 196.692 1492.53 207.412 1493.57 218.045H1463.24C1462.72 216.65 1462.2 214.995 1461.68 213.077C1461.33 211.16 1461.07 209.329 1460.89 207.586H1459.58C1456.62 210.724 1452.79 213.6 1448.08 216.215C1443.37 218.655 1436.49 219.875 1427.42 219.875C1415.4 219.875 1405.63 216.302 1398.14 209.155C1390.82 202.008 1387.16 191.724 1387.16 178.302C1387.16 164.881 1392.65 154.509 1403.63 147.188C1414.61 139.693 1432.04 135.945 1455.92 135.945H1460.89V128.624C1460.89 121.477 1459.15 116.51 1455.66 113.721C1452.18 110.757 1446.68 109.276 1439.19 109.276C1435.18 109.276 1431.08 109.712 1426.9 110.583C1422.72 111.28 1418.71 112.239 1414.87 113.459C1411.21 114.679 1407.73 116.074 1404.41 117.643C1401.28 119.211 1398.66 120.78 1396.57 122.349V96.4641C1401.28 93.6751 1407.55 90.9733 1415.4 88.3587C1423.24 85.744 1432.39 84.4367 1442.85 84.4367C1459.41 84.4367 1471.7 87.7486 1479.72 94.3724C1487.91 100.996 1492.01 112.326 1492.01 128.363V185.885ZM1533.76 258.572C1530.62 258.572 1528 258.31 1525.91 257.787C1523.82 257.439 1522.08 257.003 1520.68 256.48C1519.11 255.783 1517.81 254.999 1516.76 254.127V228.765C1520.25 232.251 1524.95 233.994 1530.88 233.994C1535.24 233.994 1538.72 233.036 1541.34 231.118C1543.95 229.375 1546.13 226.935 1547.87 223.797L1502.64 86.5284H1535.32L1564.35 185.623L1593.37 86.5284H1623.44L1582.39 210.985C1580.12 217.783 1577.68 224.059 1575.07 229.811C1572.45 235.563 1569.31 240.531 1565.65 244.714C1561.99 249.072 1557.55 252.471 1552.32 254.911C1547.26 257.352 1541.08 258.572 1533.76 258.572ZM1670.02 196.082C1677.34 196.082 1682.83 194.6 1686.49 191.637C1690.32 188.499 1692.24 184.316 1692.24 179.087C1692.24 173.16 1690.5 168.977 1687.01 166.536C1683.7 163.922 1678.04 162.615 1670.02 162.615H1651.71V139.606H1670.02C1682.74 139.606 1689.1 134.289 1689.1 123.656C1689.1 118.776 1687.36 115.028 1683.88 112.413C1680.56 109.799 1676.03 108.491 1670.28 108.491C1661.74 108.491 1654.5 109.799 1648.58 112.413C1642.65 114.854 1637.6 117.468 1633.41 120.257V94.8953C1637.25 92.455 1642.48 90.0146 1649.1 87.5743C1655.9 85.134 1664.44 83.9138 1674.72 83.9138C1688.84 83.9138 1700 86.8771 1708.19 92.8036C1716.38 98.7301 1720.48 107.271 1720.48 118.427C1720.48 125.748 1718.65 132.198 1714.99 137.775C1711.5 143.353 1705.66 147.45 1697.47 150.064C1706.19 151.807 1712.81 155.206 1717.34 160.261C1722.05 165.142 1724.4 171.504 1724.4 179.348C1724.4 192.596 1720.13 202.793 1711.59 209.94C1703.05 217.086 1690.41 220.66 1673.68 220.66C1662.35 220.66 1652.94 219.439 1645.44 216.999C1638.12 214.384 1632.98 211.857 1630.01 209.417V184.055C1634.2 187.192 1639.86 189.981 1647.01 192.421C1654.33 194.862 1662 196.082 1670.02 196.082ZM1772.22 163.399C1772.75 174.38 1775.45 182.573 1780.33 187.977C1785.21 193.38 1793.4 196.082 1804.91 196.082C1812.58 196.082 1820.07 194.862 1827.39 192.421C1834.89 189.981 1841.08 187.105 1845.96 183.793V209.155C1841.42 212.293 1835.5 214.995 1828.18 217.261C1820.86 219.527 1812.23 220.66 1802.29 220.66C1782.25 220.66 1766.82 215.082 1756.01 203.926C1745.38 192.77 1740.06 175.688 1740.06 152.679C1740.06 142.743 1741.2 133.592 1743.46 125.225C1745.73 116.858 1749.13 109.624 1753.66 103.524C1758.37 97.2485 1764.21 92.455 1771.18 89.1431C1778.32 85.6569 1786.6 83.9138 1796.02 83.9138C1803.86 83.9138 1810.92 85.0468 1817.2 87.3128C1823.47 89.5789 1828.79 93.2394 1833.14 98.2943C1837.68 103.349 1841.16 109.886 1843.6 117.904C1846.04 125.748 1847.26 135.422 1847.26 146.927V163.399H1772.22ZM1795.49 108.491C1788 108.491 1782.33 111.193 1778.5 116.597C1774.66 122 1772.57 129.931 1772.22 140.39H1815.63V137.775C1815.63 133.592 1815.28 129.757 1814.58 126.271C1814.06 122.61 1813.01 119.473 1811.44 116.858C1809.87 114.244 1807.78 112.239 1805.17 110.845C1802.55 109.276 1799.33 108.491 1795.49 108.491ZM1898.44 103.524C1902.45 97.0742 1907.42 92.1935 1913.34 88.8816C1919.44 85.5697 1926.15 83.9138 1933.48 83.9138C1940.8 83.9138 1947.51 85.3954 1953.61 88.3587C1959.71 91.3219 1964.94 95.7668 1969.3 101.693C1973.65 107.446 1977.05 114.592 1979.49 123.133C1981.93 131.5 1983.15 141.174 1983.15 152.156C1983.15 163.137 1981.85 172.899 1979.23 181.44C1976.79 189.981 1973.31 197.215 1968.77 203.141C1964.42 208.894 1959.01 213.251 1952.56 216.215C1946.29 219.178 1939.4 220.66 1931.91 220.66C1918.14 220.66 1907.24 214.646 1899.22 202.619V255.957H1868.11V86.5284H1896.87L1898.44 103.524ZM1924.06 196.082C1933.13 196.082 1939.84 192.596 1944.2 185.623C1948.73 178.651 1950.99 167.495 1950.99 152.156C1950.99 136.817 1948.9 125.748 1944.72 118.95C1940.53 111.978 1934.17 108.491 1925.63 108.491C1916.92 108.491 1910.38 111.803 1906.02 118.427C1901.66 125.051 1899.4 135.684 1899.22 150.326V152.417C1899.22 167.757 1901.23 178.912 1905.24 185.885C1909.42 192.683 1915.7 196.082 1924.06 196.082Z" fill="black"/>
</svg>
